<svg width="90" height="48" viewBox="0 0 90 48" fill="none" xmlns="http://www.w3.org/2000/svg">
<path d="M35.0293 21.7077H39.0729V10.7971H44.4126V7.05322H35.0293V21.7077Z" fill="#6933B0"/>
<path d="M26.6764 18.4406C26.2345 18.4611 25.7932 18.3892 25.3807 18.2294C24.9682 18.0697 24.5936 17.8257 24.2807 17.5129C23.9679 17.2001 23.7239 16.8256 23.5641 16.4131C23.4043 16.0007 23.3324 15.5594 23.3529 15.1176H33.3234C33.3234 15.1176 33.3898 14.3644 33.3898 13.589C33.3898 9.15831 30.7643 6.72144 26.6653 6.72144C22.3337 6.72144 19.3204 9.87829 19.3204 14.3865C19.3204 18.8947 22.2894 22.1402 26.621 22.1402C30.6424 22.1402 33.3455 19.8141 33.4231 16.4025H29.4681C29.3491 17.0334 28.9942 17.5952 28.4756 17.9738C27.957 18.3524 27.3137 18.5193 26.6764 18.4406ZM26.6764 10.0888C27.0096 10.0423 27.3487 10.0631 27.6736 10.15C27.9986 10.2369 28.3028 10.3881 28.5683 10.5947C28.8338 10.8013 29.0551 11.059 29.2192 11.3526C29.3832 11.6462 29.4867 11.9698 29.5235 12.3041H23.5745C23.7747 11.6357 24.1937 11.0539 24.7643 10.6521C25.3348 10.2504 26.0238 10.052 26.7207 10.0888H26.6764Z" fill="#6933B0"/>
<path d="M12.2747 7.05322L9.49408 16.0364L6.79098 7.05322H2.32644L0 21.7077H3.71122L5.11816 12.5916L7.85449 21.7077H11.034L13.87 12.4254L15.2215 21.7077H18.9882L16.6728 7.05322H12.2747Z" fill="#6933B0"/>
<path d="M51.824 6.69897C47.5145 6.69897 45.0662 8.81463 45.177 12.4146H49.3646C49.3646 10.886 50.1622 10.1992 51.8351 10.1992C53.0315 10.1992 53.7848 10.6977 53.7848 11.4509C53.7848 11.9383 53.5965 12.1266 52.8653 12.337L49.5418 13.2564C46.307 14.1314 44.8668 15.4717 44.8668 17.6871C44.8668 20.3122 46.7723 22.0624 49.5751 22.0624C50.4698 22.152 51.3698 21.9558 52.1461 21.5021C52.9223 21.0483 53.5348 20.3604 53.8956 19.5369V21.7522H57.7619V11.9715C57.7065 8.43802 55.4687 6.69897 51.824 6.69897ZM50.3838 18.6507C49.3535 18.6507 48.855 18.1523 48.855 17.4212C48.855 16.6902 49.2095 16.3136 50.3173 15.9702L53.8181 14.9843V15.2502C53.8289 15.7025 53.7472 16.1523 53.578 16.572C53.4088 16.9916 53.1557 17.3723 52.8341 17.6907C52.5126 18.0091 52.1294 18.2585 51.7081 18.4236C51.2867 18.5886 50.8361 18.666 50.3838 18.6507Z" fill="#6933B0"/>
<path d="M77.5813 25.6182V29.3621H81.7689V40.2726H85.8124V29.3621H90V25.6182H77.5813Z" fill="#6933B0"/>
<path d="M63.0243 25.6182H58.5708L55.4246 31.0568H53.8182V25.6182H49.7747V40.2726H53.8182V34.6568H55.4024L58.7813 40.2726H63.3455L58.881 32.7959L63.0243 25.6182Z" fill="#6933B0"/>
<path d="M26.9312 25.2639C22.6217 25.2639 20.1623 27.3796 20.2842 30.9795H24.4718C24.4718 29.4509 25.2694 28.7642 26.9422 28.7642C28.1387 28.7642 28.892 29.2737 28.892 30.0269C28.892 30.5032 28.7037 30.6915 27.9614 30.902L24.638 31.8213C21.4142 32.7075 19.974 34.0367 19.974 36.252C19.974 38.8661 21.8795 40.6273 24.6823 40.6273C25.5779 40.7242 26.4809 40.5298 27.2572 40.0728C28.0336 39.6159 28.6418 38.9208 28.9917 38.0907V40.3061H32.8691V30.4921C32.8137 27.003 30.5759 25.2639 26.9312 25.2639ZM25.4688 37.2157C24.4607 37.2157 23.9511 36.7172 23.9511 35.9751C23.9511 35.233 24.3167 34.8674 25.4245 34.5573L28.9142 33.5714V33.8151C28.9251 34.2684 28.843 34.7192 28.6732 35.1396C28.5033 35.56 28.2492 35.9413 27.9264 36.2598C27.6037 36.5784 27.2192 36.8275 26.7965 36.9919C26.3738 37.1563 25.922 37.2324 25.4688 37.2157Z" fill="#6933B0"/>
<path d="M42.6955 25.2641C41.8507 25.2112 41.0111 25.4299 40.2994 25.8883C39.5878 26.3467 39.0416 27.0207 38.7406 27.8118V25.5964H34.697V44.2717H38.7406V38.1131C39.0522 38.8928 39.6027 39.5539 40.3132 40.0016C41.0236 40.4493 41.8576 40.6606 42.6955 40.6054C46.019 40.6054 48.2347 38.0134 48.2347 32.9403C48.2347 27.8671 46.0522 25.2641 42.6955 25.2641ZM41.5877 36.8614C39.7376 36.8614 38.6298 35.5987 38.6298 32.9403C38.6298 30.2819 39.7376 29.008 41.5656 29.008C43.3935 29.008 44.3019 30.2819 44.3019 32.9403C44.3019 35.5987 43.3713 36.8614 41.5656 36.8614H41.5877Z" fill="#6933B0"/>
<path d="M12.2747 25.6182L9.49408 34.5903L6.79098 25.6182H2.32644L0 40.2726H3.71122L5.11816 31.1565L7.85449 40.2726H11.034L13.87 30.9904L15.2215 40.2726H18.9882L16.6728 25.6182H12.2747Z" fill="#6933B0"/>
<path d="M69.9146 37.0055C69.4731 37.0243 69.0325 36.9513 68.6208 36.7909C68.2091 36.6306 67.8351 36.3865 67.5227 36.0741C67.2102 35.7617 66.9661 35.3878 66.8057 34.9761C66.6454 34.5644 66.5723 34.1239 66.5911 33.6825H76.5615C76.5615 33.6825 76.628 32.9293 76.628 32.1539C76.628 27.7233 74.0135 25.2864 69.9035 25.2864C65.5719 25.2864 62.5586 28.4432 62.5586 32.9404C62.5586 37.4375 65.5276 40.6941 69.8592 40.6941C73.8806 40.6941 76.5837 38.368 76.6723 34.9563H72.7063C72.5897 35.5893 72.2358 36.1538 71.717 36.5346C71.1981 36.9155 70.5534 37.0839 69.9146 37.0055ZM69.9146 28.6537C70.2481 28.6087 70.5873 28.6306 70.9123 28.718C71.2374 28.8054 71.5417 28.9566 71.8078 29.1628C72.0738 29.369 72.2961 29.626 72.4618 29.9189C72.6274 30.2119 72.7332 30.5348 72.7728 30.869H66.8127C67.0111 30.1996 67.4297 29.6166 68.0007 29.2146C68.5716 28.8126 69.2616 28.6149 69.9589 28.6537H69.9146Z" fill="#6933B0"/>
</svg>
