<svg width="36" height="40" viewBox="0 0 40 40" fill="none" xmlns="http://www.w3.org/2000/svg">
<g>
<path d="M12.748 27.9681C13.6298 24.278 17.2003 17.6472 19.1686 17.3055L22.1948 16.7802L26.9221 17.9806L29.4541 20.7536C30.0958 21.7221 32.5995 22.3826 32.2346 25.2688C31.6989 29.5051 25.6605 35.4845 24.9717 36.1449C24.2829 36.8054 20.8287 41.8446 19.0853 43.1812C17.4098 44.4658 13.0184 48.0248 12.6908 48.6058L3.54334 56.8471C2.49041 57.7907 7.51564 43.7835 7.6042 42.0448C7.66984 40.7558 12.1468 32.7717 11.7679 31.8227C11.7679 31.8227 12.0425 30.9202 12.748 27.9681Z" fill="#FB8500"/>
<path d="M14.2333 26.1829L16.107 28.5593L19.7052 29.4183" stroke="#3E3E3E" stroke-width="0.645623" stroke-linecap="round" stroke-linejoin="round"/>
<path d="M15.0452 37.79L16.9295 40.1573L20.5333 41.0015" stroke="#3E3E3E" stroke-width="0.645623" stroke-linecap="round" stroke-linejoin="round"/>
<path d="M34.347 11.702C34.3842 10.0895 36.9613 -5.12152 37.188 -7.50308L33.6415 -7.23697C33.6444 -5.0492 31.5368 10.0004 31.5401 12.5172C31.5435 15.0341 29.9044 17.3238 29.0845 18.1541C29.2307 16.9802 29.6112 14.1396 29.9633 12.1684C30.3153 10.1972 30.1019 5.29002 29.9511 3.08283L24.9763 3.571C25.1246 3.943 25.5795 5.19106 26.2127 7.20737C26.846 9.22368 26.4806 11.0308 26.2187 11.6824L24.3919 8.63727L20.3541 9.8843C21.7189 11.2558 24.646 14.4742 25.4368 16.3762C26.2275 18.2782 26.2957 20.205 26.231 20.9307L28.4974 21.1863L31.9917 18.7049C32.7613 17.0424 34.3097 13.3144 34.347 11.702Z" fill="#8AC926"/>
</g>
</svg>
