<svg width="134" height="136" viewBox="0 0 134 136" fill="none" xmlns="http://www.w3.org/2000/svg">
<g>
<rect width="134" height="134.703" transform="translate(0 0.388573)" />
<path d="M34.4313 32.2645C38.1484 34.2668 42.958 38.2123 44.8981 39.9347C44.954 38.9076 45.303 35.6113 46.2518 30.6429C47.2007 25.6745 49.6518 19.3018 50.7588 16.7364L63.7016 14.4373C65.2833 15.4517 69.2244 18.5632 72.3354 22.8933C75.4464 27.2234 76.2691 34.356 76.2917 37.381C77.6887 37.5412 81.2963 38.2459 84.5503 39.7828C88.6177 41.7039 94.1449 44.089 100.525 49.4977C105.629 53.8248 109.309 59.2082 110.511 61.359C109.43 67.0061 106.335 79.0764 102.605 82.1809C98.8753 85.2853 93.1413 85.6493 90.7405 85.4432L93.4839 100.818C88.0756 102.966 75.1054 107.445 66.4908 108.176C57.8763 108.907 52.1465 101.35 50.3585 97.4798C49.5133 98.028 46.9282 99.2363 43.3492 99.6836C39.7701 100.131 33.6466 99.923 31.0322 99.7631C25.5337 95.2604 13.76 84.7081 10.6536 78.521C6.77068 70.7871 8.85095 55.0036 12.2888 44.5364C15.039 36.1626 19.067 31.9696 20.7371 30.9199C23.7531 30.5338 30.7143 30.2622 34.4313 32.2645Z" fill="#386641"/>
<path d="M92.7708 56.0319L64.1365 31.2274C60.5532 34.4669 52.54 41.7924 49.1537 45.1779C45.7675 48.5633 34.3462 58.4018 29.0588 62.8978L60.4216 100.996C62.595 98.7806 68.7402 92.1042 75.9344 83.1251C83.1286 74.146 90.1563 61.3217 92.7708 56.0319Z" fill="#9EE493"/>
<path d="M48.6337 58.3136L62.8742 45.1217L79.2011 58.0592L64.2835 78.0132L48.6337 58.3136Z" fill="#D1FD25"/>
<path d="M36.9094 63.9786C36.4685 60.9999 36.9736 54.2134 37.2813 51.1925C36.5466 52.895 34.8001 57.5578 33.691 62.5899C32.582 67.6219 34.1407 73.6004 35.0587 75.9606L43.9924 76.413C43.9763 77.5402 43.9893 80.113 44.1702 81.3862C44.3512 82.6593 45.9024 86.2831 46.6554 87.9359C49.92 88.1274 58.5519 88.7539 66.9621 89.7272C75.3723 90.7006 84.5734 87.6998 88.1227 86.0777C88.4045 85.4247 89.1186 82.3081 89.7209 75.0656C90.3232 67.8231 87.1893 59.0072 85.5471 55.5045C85.5381 57.769 85.2929 63.5943 84.3836 68.7789C83.4742 73.9635 81.3668 80.2577 80.4267 82.7568C79.9191 83.0357 77.4263 83.902 71.5159 85.136C65.6056 86.37 57.2953 84.9473 53.8789 84.0817C53.3133 83.5333 51.7529 81.9693 50.0366 80.1C48.3203 78.2307 46.5399 73.9713 45.8642 72.0752L38.1682 68.7543C37.9323 68.4036 37.3502 66.9573 36.9094 63.9786Z" fill="white"/>
<path d="M45.9658 41.0786C48.1809 38.7148 54.0717 35.1154 56.7403 33.6112C58.4235 34.0056 62.2914 35.2099 64.2963 36.8717C66.3013 38.5336 69.3302 41.8103 70.594 43.2409L71.5188 53.5988L69.21 52.6026C67.4047 47.6187 61.7735 38.2563 53.6911 40.6776C45.6086 43.0989 44.3991 52.8512 44.8047 57.4247L42.6617 46.0432C42.8401 45.3732 43.7508 43.4424 45.9658 41.0786Z" fill="white"/>
<path d="M73.6534 63.9901C74.0368 61.1015 73.6784 57.9702 73.4512 56.7656C73.8801 57.3103 74.9376 58.5523 75.7365 59.1626C76.5355 59.7729 78.3246 61.8839 79.1192 62.863C78.971 63.463 78.365 65.2265 77.1267 67.4806C75.5789 70.2983 73.3137 71.8936 69.3967 73.855C66.263 75.4241 61.6144 77.0808 59.6818 77.713C58.1892 77.069 54.4798 74.9206 51.5828 71.4795C48.6857 68.0384 47.1471 62.0133 46.74 59.4309C47.1478 60.4091 48.416 63.009 50.2266 65.5829C52.0372 68.1568 55.2856 71.1685 56.6834 72.3526C57.3533 72.5311 59.3619 72.7615 62.0366 72.2559C64.7113 71.7502 69.6679 69.3799 71.8119 68.2579C72.266 68.0389 73.2701 66.8787 73.6534 63.9901Z" fill="white"/>
<path d="M54.631 48.6445L59.3684 46.7052C58.0846 47.9494 55.4854 51.088 55.3589 53.6891C55.2324 56.2902 57.2502 58.9867 58.2749 60.0098L63.2648 57.1006L61.4232 61.3684L53.5964 62.3895C53.0111 61.6944 51.6862 59.6233 51.0686 56.9002C50.451 54.1772 53.1862 50.2618 54.631 48.6445Z" fill="white"/>
<path d="M58.5499 53.9872L58.8753 51.8868C59.2723 51.8645 60.4204 51.8066 61.8373 51.7541C63.2542 51.7016 65.2281 52.1661 66.038 52.4049L69.1144 58.5459C68.9964 59.0759 68.5775 60.4056 67.8465 61.4843C67.1154 62.5631 64.7072 64.5282 63.5945 65.3759C64.4987 63.8573 66.0906 60.2453 65.2238 57.9459C64.357 55.6465 60.4134 54.3487 58.5499 53.9872Z" fill="white"/>
<path d="M76.1102 91.1205C79.6379 86.676 88.6688 79.9451 91.5528 80.7261L95.9868 81.9268L101.636 86.5419L103.315 91.9011C103.573 93.6195 106.549 96.0973 104.23 99.7788C100.826 105.182 88.8617 109.471 87.5107 109.93C86.1596 110.39 78.2923 115.037 75.0843 115.747C72.0013 116.429 63.7993 118.478 62.9879 119.058L45.3796 124.447C42.4058 124.229 59.0213 109.251 60.2403 106.95C61.144 105.244 72.2591 97.2516 72.3452 95.7258C72.3452 95.7258 73.288 94.6761 76.1102 91.1205Z" fill="#FB8500"/>
<path d="M79.243 89.6378L80.2808 94.0433L84.615 97.4821" stroke="#3E3E3E" stroke-width="0.965596" stroke-linecap="round" stroke-linejoin="round"/>
<path d="M73.0397 105.895L74.0974 110.295L78.4487 113.717" stroke="#3E3E3E" stroke-width="0.965596" stroke-linecap="round" stroke-linejoin="round"/>
<path d="M115.682 82.7306C116.752 80.5685 129.86 61.5793 131.672 58.4945L126.697 56.6135C125.318 59.5808 112.949 78.6478 111.362 82.0615C109.776 85.4751 106.107 87.5428 104.471 88.15C105.411 86.6512 107.722 83.0413 109.445 80.592C111.169 78.1426 113.981 71.3561 115.172 68.2691L108.12 65.7863C108.086 66.3842 107.914 68.3635 107.497 71.4968C107.081 74.6301 105.444 76.8487 104.677 77.5663L104.126 72.2841L97.8643 71.4222C98.8473 74.1438 100.781 80.3564 100.65 83.4344C100.52 86.5123 99.3944 89.1672 98.848 90.1099L101.758 91.8889L108.063 90.7341C110.157 88.9671 114.613 84.8927 115.682 82.7306Z" fill="#8AC926"/>
</g>
</svg>
